name 900006 ik
datacolumns 165
datarows 4
range 0.1500000000000000 0.1750000000000000
cursor 1.0 1.0 0.0
keys m_key
wrap
enforce_loops no
enforce_constraints no
calc_derivatives 0.008333
event_color 1.000000 0.000000 1.000000
endheader

time	calcn_r_tx	calcn_r_ty	calcn_r_tz	calcn_r_r1	calcn_r_r2	calcn_r_r3	calcn_l_tx	calcn_l_ty	calcn_l_tz	calcn_l_r1	calcn_l_r2	calcn_l_r3	pelvis_tz	pelvis_tx	pelvis_ty	pelvis_tilt	pelvis_list	pelvis_rotation	hip_flexion_r	hip_adduction_r	hip_rotation_r	knee_angle_r	ankle_angle_r	subtalar_angle_r	mtp_angle_r	hip_flexion_l	hip_adduction_l	hip_rotation_l	knee_angle_l	ankle_angle_l	subtalar_angle_l	mtp_angle_l	lumbar_extension	lumbar_bending	lumbar_rotation	ground_force_px	ground_force_py	ground_force_pz	ground_force_vx	ground_force_vy	ground_force_vz	ground_force_px	ground_force_py	ground_force_pz	ground_force_vx	ground_force_vy	ground_force_vz	ground_torque_x	ground_torque_y	ground_torque_z	ground_torque_x	ground_torque_y	ground_torque_z	 midhip_px	 midhip_py	 midhip_pz	 hip_r_px	 hip_r_py	 hip_r_pz	 hip_l_px	 hip_l_py	 hip_l_pz	 knee_r_px	 knee_r_py	 knee_r_pz	 knee_l_px	 knee_l_py	 knee_l_pz	 ankle_r_px	 ankle_r_py	 ankle_r_pz	 ankle_l_px	 ankle_l_py	 ankle_l_pz	 midasis_px	 midasis_py	 midasis_pz	 asis_r_px	 asis_r_py	 asis_r_pz	 asis_l_px	 asis_l_py	 asis_l_pz	 psis_r_px	 psis_r_py	 psis_r_pz	 psis_l_px	 psis_l_py	 psis_l_pz	 epicondLat_r_px	 epicondLat_r_py	 epicondLat_r_pz	 epicondLat_l_px	 epicondLat_l_py	 epicondLat_l_pz	 epicondMed_r_px	 epicondMed_r_py	 epicondMed_r_pz	 epicondMed_l_px	 epicondMed_l_py	 epicondMed_l_pz	 malleolusLat_r_px	 malleolusLat_r_py	 malleolusLat_r_pz	 malleolusLat_l_px	 malleolusLat_l_py	 malleolusLat_l_pz	 malleolusMedv_r_px	 malleolusMedv_r_py	 malleolusMedv_r_pz	 malleolusMedv_l_px	 malleolusMedv_l_py	 malleolusMedv_l_pz	 sternalnotch_px	 sternalnotch_py	 sternalnotch_pz	 xyphoidprocess_px	 xyphoidprocess_py	 xyphoidprocess_pz	 neck_px	 neck_py	 neck_pz	 toe_r_px	 toe_r_py	 toe_r_pz	 toe_l_px	 toe_l_py	 toe_l_pz	 thighwand_r_px	 thighwand_r_py	 thighwand_r_pz	 thighwand_l_px	 thighwand_l_py	 thighwand_l_pz	 upperleg1_r_px	 upperleg1_r_py	 upperleg1_r_pz	 upperleg1_l_px	 upperleg1_l_py	 upperleg1_l_pz	 upperleg2_r_px	 upperleg2_r_py	 upperleg2_r_pz	 upperleg2_l_px	 upperleg2_l_py	 upperleg2_l_pz	 shankwand_r_px	 shankwand_r_py	 shankwand_r_pz	 shankwand_l_px	 shankwand_l_py	 shankwand_l_pz	 lowerleg1_r_px	 lowerleg1_r_py	 lowerleg1_r_pz	 lowerleg1_l_px	 lowerleg1_l_py	 lowerleg1_l_pz	 subclavicle_r_px	 subclavicle_r_py	 subclavicle_r_pz	 subclavicle_l_px	 subclavicle_l_py	 subclavicle_l_pz	
      0.1500000000000000	      0.9950973622071730	      0.1688985597410600	     -0.1543125380491169	     -1.3016669325195214	     -7.9658319424601700	    -56.7070143547133230	      1.4345862121827890	      0.0329285717987596	     -0.2694402217818257	     -4.5089009878035355	     -0.0746424782694085	      1.7933279588712161	     -0.2270972605774339	      1.4111410924557537	      0.8176544464142476	      1.5293894349084673	      1.7017397592205294	     -2.3343554344319135	     -7.3287522059426369	     -4.5962380406047325	     -6.4612868095953697	    -40.4633750804323640	    -10.7529306650937610	      0.0000000000000000	      0.0000000000000000	     16.2893554168004930	      5.1401541763484619	     -3.4602552052165874	    -12.9418362992582330	     -2.8387176829324607	      0.0000000000000000	      0.0000000000000000	     -0.8212714633783939	     -1.0050095696717449	     -1.1798097338384113	      1.8016882283298445	      0.0000000000000000	     -0.1896541701633858	      0.0000000000000000	      0.0000000000000000	      0.0000000000000000	      1.4839234584482122	      0.0000000000000000	     -0.2664890695983685	    -53.7788545731991620	    434.0758333000838400	     13.0479669742586020	      0.0000000000000000	     -0.0000000000000000	      0.0000000000000000	      0.0000000000000000	     -0.4094474262269847	      0.0000000000000000	      1.3777745647983874	      0.7572129515215199	     -0.2357349261560724	      1.3685726470073756	      0.7522667176744218	     -0.1792630977712137	      1.3869771348563624	      0.7621579860067327	     -0.2922065154448831	      1.2882493674684812	      0.4098955415753094	     -0.1396725405510780	      1.4286615588128946	      0.4152464050523047	     -0.2816689912454091	      1.0451584177089026	      0.1464175948835247	     -0.1456084786619387	      1.4795621016938045	      0.0662069656497900	     -0.2663509359884980	      1.4131121768619486	      0.8285514747217908	     -0.2241859951244703	      1.4107913613779206	      0.8247808240751842	     -0.1123960646923524	      1.4154323320387965	      0.8323219468693766	     -0.3359753772818428	      1.2365899409007333	      0.8600437728354179	     -0.1969185193483968	      1.2370347616490349	      0.8590394494061323	     -0.2503430944152529	      1.2981816163180366	      0.4058451744020766	     -0.0806249704072517	      1.4485931238583190	      0.4129574950056815	     -0.3403358515944981	      1.3135562375813217	      0.3991757062751358	     -0.2038381523188659	      1.4398732991296810	      0.4161035256311453	     -0.2234842135669147	      1.0389571740253565	      0.1514396546046443	     -0.1089658072125993	      1.4714241674864572	      0.0636785814635652	     -0.3018402023769350	      1.0458385001416381	      0.1425047425277695	     -0.1792864963055108	      1.4783270366406851	      0.0680307235201360	     -0.2329086889605562	      1.3966844328368735	      1.1849617080897301	     -0.2432406649479323	      1.4100421319100702	      1.0837164508695283	     -0.2469085345998258	      1.2844721853655170	      1.2507938054266370	     -0.2416479698560248	      1.0787929302695669	      0.0675561049665705	     -0.1483951399941398	      1.5715158132487890	      0.0476509359975239	     -0.2786328329442135	      1.4509168508555788	      0.5311839806990967	     -0.1048467289982198	      1.5164649413138700	      0.5815173184701252	     -0.3568407494474777	      1.3982181715781337	      0.5767386731395116	     -0.0795518860135761	      1.4810463905006079	      0.6216346478037365	     -0.2976429749094079	      1.3808517743236510	      0.5205891811731376	     -0.0823124230020517	      1.4859393893217658	      0.5645192508759428	     -0.2868943713025388	      1.2147941006061413	      0.1536663362148648	     -0.1105610057969608	      1.4569191837396014	      0.1604430136346059	     -0.3964319384951729	      1.1488716256969675	      0.1954575567546629	     -0.1330887421844824	      1.4631214109672346	      0.1551210671474226	     -0.3172225370375512	      1.3971381931952036	      1.1844065382348425	     -0.1864445961311144	      1.4016083889299702	      1.1862132590052128	     -0.2936379524987964	
      0.1583333333333333	      1.0060547420148154	      0.1729496781462767	     -0.1518307492840940	     -1.2070154153261792	     -7.3295725295865815	    -57.6204388516865930	      1.4342123137157423	      0.0332080909530037	     -0.2679789458363549	     -4.7964123116886626	      0.9830854100524537	      1.6969683846391952	     -0.2292360983660781	      1.4187757583691736	      0.8185858007767592	      1.5310095234300218	      1.8232831955242759	     -1.4952721091503940	     -6.5705067485203834	     -4.7298441864678518	     -6.5832316126822406	    -41.9550008150173990	    -10.9977645132483910	      0.0000000000000000	      0.0000000000000000	     15.8224277173634530	      5.5130876861891105	     -3.8600835526988875	    -13.2438073332613370	     -2.2295178265218740	     -0.0000000000000000	      0.0000000000000000	     -0.6724904351930280	     -1.1068612252452326	     -1.4214074466311428	      1.8030761705543592	      0.0000000000000000	     -0.1894777999135081	      0.0000000000000000	      0.0000000000000000	      0.0000000000000000	      1.4851706504784756	      0.0000000000000000	     -0.2668087801205498	    -51.5664871596109930	    438.5658687231361900	     14.5714014970587920	      0.0000000000000000	     -0.0000000000000000	      0.0000000000000000	      0.0000000000000000	     -0.3978726627620562	      0.0000000000000000	      1.3852304916761744	      0.7580957154410227	     -0.2370555053475551	      1.3764595673276352	      0.7531977457949332	     -0.1805136589408093	      1.3940018761989044	      0.7629927849529622	     -0.2935971473000613	      1.3012473765863808	      0.4091374662921815	     -0.1398055367958218	      1.4310212889351537	      0.4168090457615939	     -0.2826023466099435	      1.0556538965985072	      0.1495431339882519	     -0.1442171693591915	      1.4798936841042436	      0.0662076308381169	     -0.2663295761242239	      1.4206532149125362	      0.8295194612063607	     -0.2258720432220060	      1.4191196411229032	      0.8258477087480457	     -0.1142017923551726	      1.4221865051181959	      0.8331910078593497	     -0.3375422431080384	      1.2442266635394412	      0.8608546324054803	     -0.1972937367341441	      1.2445923603050124	      0.8597585609685483	     -0.2507581252532413	      1.3115270137127328	      0.4058854330906935	     -0.0806790848148716	      1.4525871659438720	      0.4131915859253034	     -0.3412050402309524	      1.3266042377439462	      0.3984758450035473	     -0.2040538767044930	      1.4439357852581634	      0.4169288975971400	     -0.2257616237556823	      1.0497124709379073	      0.1546292505347478	     -0.1075410916739890	      1.4716772393893855	      0.0636814839925371	     -0.3018049735724045	      1.0560119890182276	      0.1454232343839892	     -0.1778635978448172	      1.4781890423994231	      0.0681957173531825	     -0.2328418678051657	      1.4047875199397206	      1.1861196968453758	     -0.2444672817130230	      1.4185140449937734	      1.0849163369099879	     -0.2478808095060212	      1.2923346054116269	      1.2515528717065929	     -0.2432256024618061	      1.0879862746274473	      0.0699721844134962	     -0.1467317672632016	      1.5716028680614076	      0.0473834470326091	     -0.2785700596231565	      1.4625960597133989	      0.5330747014674657	     -0.1059024303526887	      1.5217133095742750	      0.5807752841316133	     -0.3594092463655008	      1.4088849582761938	      0.5779112604287483	     -0.0805800404842729	      1.4875749887158829	      0.6221486274808221	     -0.2996779352561680	      1.3922280014039821	      0.5211102097274509	     -0.0831070077344525	      1.4916639483690082	      0.5647190034821790	     -0.2891626531957326	      1.2255673995313723	      0.1548464408504409	     -0.1100996943037551	      1.4582653280328812	      0.1603503748703531	     -0.3967072551610331	      1.1597892745767913	      0.1974840459226707	     -0.1324689304999143	      1.4639596081537172	      0.1551851081476831	     -0.3174494038411040	      1.4053692316912152	      1.1857277391972390	     -0.1878921622509403	      1.4095939027941922	      1.1872459817192613	     -0.2946567419621117	
      0.1666666666666667	      1.0164135183341501	      0.1760650173143415	     -0.1506939053483250	     -1.3615298459860383	     -7.2203723226165435	    -58.0271246126311270	      1.4344068905877894	      0.0334745725991656	     -0.2669343273349402	     -4.9924992955112844	      1.3907747343918790	      1.5003161051449383	     -0.2311299952085120	      1.4253410161110978	      0.8198028858609137	      1.6293790194497619	      1.6721828243494348	     -1.2766498849418102	     -5.8430105013077274	     -4.8129188959908547	     -6.6038891092047853	    -43.2436437416040250	    -10.9574639335801450	      0.0000000000000000	      0.0000000000000000	     15.3175014889754380	      5.5525498670113693	     -4.0987898367001776	    -13.4808487009715370	     -1.8003675357410971	     -0.0000000000000000	      0.0000000000000000	     -0.5826457748982840	     -1.1933307545575838	     -1.7058713631643545	      1.8044719194339471	      0.0000000000000000	     -0.1892241501155528	      0.0000000000000000	      0.0000000000000000	      0.0000000000000000	      1.4862857695931631	      0.0000000000000000	     -0.2670710799161333	    -48.4144442297587640	    440.7954763250015200	     15.2359539901180930	      0.0000000000000000	     -0.0000000000000000	      0.0000000000000000	      0.0000000000000000	     -0.3231728917972131	      0.0000000000000000	      1.3926292074175779	      0.7589748883782690	     -0.2383168426921108	      1.3842593056083203	      0.7541261386626261	     -0.1817110808818674	      1.4009994538889621	      0.7638230087051211	     -0.2949224311557706	      1.3143106737011863	      0.4085879765374293	     -0.1400985361108615	      1.4335051093557378	      0.4180314327336552	     -0.2834012702653119	      1.0665568733956834	      0.1524045678780301	     -0.1428750004469116	      1.4802273661816399	      0.0661963641860976	     -0.2663217683111855	      1.4281001418807842	      0.8304803773933710	     -0.2274753227338985	      1.4272998505902710	      0.8269189298398373	     -0.1159018061949544	      1.4289004192537589	      0.8340416478044643	     -0.3390490385712204	      1.2517711796169280	      0.8616361741066483	     -0.1976995543197257	      1.2520416689401921	      0.8604726700508548	     -0.2512295352191338	      1.3249924219523703	      0.4060413408688414	     -0.0808936477621842	      1.4563178470070111	      0.4134186927417025	     -0.3419297142524028	      1.3396276619294478	      0.3980209578828627	     -0.2045339689611865	      1.4482400989498536	      0.4178033814680057	     -0.2271431972299747	      1.0608901678644749	      0.1575383126856920	     -0.1061629893383409	      1.4718650984819022	      0.0636829484532408	     -0.3017650859702549	      1.0666098081008395	      0.1481783884001323	     -0.1765069638721379	      1.4782034097571590	      0.0683232280885516	     -0.2327931798947596	      1.4127335310535447	      1.1872445978238655	     -0.2456776136791664	      1.4267155119755202	      1.0860691243365515	     -0.2488756837120344	      1.3001535564446163	      1.2523780912802889	     -0.2446524897031648	      1.0981767651542633	      0.0724525689126841	     -0.1449486874883668	      1.5716680635775859	      0.0471607344106236	     -0.2784998885101079	      1.4742003926826972	      0.5351022726727902	     -0.1072903644175725	      1.5267929415132144	      0.5800180968842944	     -0.3617204048733598	      1.4196274551088486	      0.5791977691811056	     -0.0818820317047431	      1.4938976433781710	      0.6225365623780786	     -0.3014375337971259	      1.4037186417003507	      0.5218652880887045	     -0.0841820720912371	      1.4972934899568908	      0.5648792851472431	     -0.2909971105764611	      1.2367180597875762	      0.1560131654125539	     -0.1097936409744844	      1.4592792248334772	      0.1602760347868313	     -0.3968901009109391	      1.1711076191323877	      0.1994275361870124	     -0.1319089393851442	      1.4647121080159955	      0.1552686574117722	     -0.3176057384962966	      1.4133980358426335	      1.1869868666358374	     -0.1892599918833491	      1.4174636610903071	      1.1882653510846521	     -0.2957184156524719	
      0.1750000000000000	      1.0281381711567570	      0.1787383024751478	     -0.1479270007718263	     -1.2873975177830463	     -6.4538056107054311	    -58.1350710136740290	      1.4342630499952393	      0.0335123811604136	     -0.2659196319776757	     -5.1367873281709704	      2.1750282245148567	      1.4743668617619186	     -0.2324922344932085	      1.4326936847647669	      0.8207191534779474	      1.6573561813561515	      1.7126795251873381	     -0.6594132474872940	     -4.9923755163985382	     -4.7986232750403248	     -6.3533258801221510	    -44.6350247241984090	    -10.5670254313363600	      0.0000000000000000	      0.0000000000000000	     14.7435390010580140	      5.7398710523207921	     -4.3680458881112454	    -13.6029952609535980	     -1.2139759997366637	     -0.0000000000000000	      0.0000000000000000	     -0.5587352467946086	     -1.2503764226553684	     -2.0126786524275215	      1.8059248000000012	      0.0000000000000000	     -0.1889060399999993	      0.0000000000000000	      0.0000000000000000	      0.0000000000000000	      1.4872163100000111	      0.0000000000000000	     -0.2672208600000052	    -44.7728859300076540	    439.5998147601656000	     14.7436903500646570	      0.0000000000000000	     -0.0000000000000000	      0.0000000000000000	      0.0000000000000000	     -0.2036556400042930	      0.0000000000000000	      1.3999727268601909	      0.7598512083613037	     -0.2395202649845193	      1.3919719490830085	      0.7550529785559190	     -0.1828568516392498	      1.4079737944317379	      0.7646490400018983	     -0.2961835271918644	      1.3274288848196081	      0.4082494376090123	     -0.1405458257660436	      1.4361070890286960	      0.4189225039606894	     -0.2840686333423894	      1.0778726372022949	      0.1549936323570440	     -0.1415839030694031	      1.4805644515132259	      0.0661730570615034	     -0.2663279127489922	      1.4354559012596377	      0.8314347764323875	     -0.2289960131965793	      1.4353323921629884	      0.8279956704628467	     -0.1174957768201431	      1.4355795763315311	      0.8348737766610960	     -0.3404964792684598	      1.2592267564829644	      0.8623906154914983	     -0.1981371379099970	      1.2593898121495939	      0.8611807697614556	     -0.2517544072119630	      1.3385737666347861	      0.4063126558867996	     -0.0812638737273622	      1.4597922256109996	      0.4136365954541948	     -0.3425146540508596	      1.3526113195576401	      0.3978127400256918	     -0.2052631469817488	      1.4527577424485103	      0.4187162585052986	     -0.2276763252954548	      1.0724910105175030	      0.1601622355048428	     -0.1048345784757376	      1.4719914863845287	      0.0636827537326917	     -0.3017214068806572	      1.0776431459062927	      0.1507591912988720	     -0.1752183532885615	      1.4783808205746094	      0.0684126770215616	     -0.2327642332419585	      1.4205269784232126	      1.1883299688915880	     -0.2468674640532204	      1.4346549564019524	      1.0871688443007319	     -0.2498879594251070	      1.3079253842195466	      1.2532620448511522	     -0.2459296557965462	      1.1093476750271429	      0.0749819918508871	     -0.1430609477584877	      1.5717129259505445	      0.0469801951009839	     -0.2784224618825119	      1.4857278920463244	      0.5372638444894742	     -0.1090009031654829	      1.5317100434905564	      0.5792480998067492	     -0.3637754246920988	      1.4304409804197900	      0.5805986714852384	     -0.0834441783357680	      1.5000217105621292	      0.6227905436380693	     -0.3029341786515317	      1.4153160318460813	      0.5228519869455072	     -0.0855241365518169	      1.5028269887780878	      0.5649945054449552	     -0.2924182228946206	      1.2482473762506272	      0.1571648470138008	     -0.1096246335683640	      1.4599720777157075	      0.1602174314191033	     -0.3969838430142264	      1.1828338481690739	      0.2012795611603528	     -0.1314004229233137	      1.4653966635701194	      0.1553680823036128	     -0.3176954201260493	      1.4212316112670822	      1.1881784029681146	     -0.1905453077341910	      1.4252199382910000	      1.1892643097172135	     -0.2968175963166208	
